<svg width="840" height="460" viewBox="0 0 840 460" xmlns="http://www.w3.org/2000/svg">
  
    <style>
      @keyframes fadeInUp {
        from { opacity: 0; transform: translateY(12px); }
        to   { opacity: 1; transform: translateY(0); }
      }
      @keyframes growBar {
        from { transform: scaleY(0); }
        to   { transform: scaleY(1); }
      }
      .cpd-header  { animation: fadeInUp 0.5s ease both; }
      .cpd-stats   { animation: fadeInUp 0.5s ease 0.15s both; }
      .cpd-chart   { animation: fadeInUp 0.5s ease 0.3s both; }
      .cpd-legend  { animation: fadeInUp 0.5s ease 0.45s both; }
    </style>

  <!-- Background -->
  <rect width="840" height="460" rx="12" fill="#2e3440" stroke="#4c566a" stroke-width="1"/>

  <!-- Header -->
  <g class="cpd-header">
    <a href="https://github.com/mpge/code-per-day" target="_blank">
      <text x="24" y="44" fill="#eceff4" font-size="18" font-family="'Segoe UI', sans-serif" font-weight="700">Code Per Day</text>
    </a>
    <text x="816" y="44" fill="#81a1c1" font-size="13" font-family="'Segoe UI', sans-serif" text-anchor="end" font-weight="500">@mpge</text>
  </g>

  <!-- Stats Cards -->
  <g class="cpd-stats">
    
    <rect x="24" y="60" width="190" height="68" rx="8" fill="#2e3440" stroke="#4c566a" stroke-width="1"/>
    <text x="119" y="78" fill="#81a1c1" font-size="11" font-family="'Segoe UI', sans-serif" text-anchor="middle" font-weight="500">Today</text>
    <text x="119" y="100" fill="#a3be8c" font-size="16" font-family="'Segoe UI Mono', 'Cascadia Code', monospace" text-anchor="middle" font-weight="700">+1,999</text>
    <text x="119" y="118" fill="#bf616a" font-size="14" font-family="'Segoe UI Mono', 'Cascadia Code', monospace" text-anchor="middle" font-weight="600">-1,106</text>
    <rect x="222" y="60" width="190" height="68" rx="8" fill="#2e3440" stroke="#4c566a" stroke-width="1"/>
    <text x="317" y="78" fill="#81a1c1" font-size="11" font-family="'Segoe UI', sans-serif" text-anchor="middle" font-weight="500">30d Avg</text>
    <text x="317" y="100" fill="#a3be8c" font-size="16" font-family="'Segoe UI Mono', 'Cascadia Code', monospace" text-anchor="middle" font-weight="700">+576</text>
    <text x="317" y="118" fill="#bf616a" font-size="14" font-family="'Segoe UI Mono', 'Cascadia Code', monospace" text-anchor="middle" font-weight="600">-251</text>
    <rect x="420" y="60" width="190" height="68" rx="8" fill="#2e3440" stroke="#4c566a" stroke-width="1"/>
    <text x="515" y="78" fill="#81a1c1" font-size="11" font-family="'Segoe UI', sans-serif" text-anchor="middle" font-weight="500">Year Avg</text>
    <text x="515" y="100" fill="#a3be8c" font-size="16" font-family="'Segoe UI Mono', 'Cascadia Code', monospace" text-anchor="middle" font-weight="700">+571</text>
    <text x="515" y="118" fill="#bf616a" font-size="14" font-family="'Segoe UI Mono', 'Cascadia Code', monospace" text-anchor="middle" font-weight="600">-240</text>
        <rect x="618" y="60" width="190" height="68" rx="8" fill="#2e3440" stroke="#4c566a" stroke-width="1"/>
        <text x="713" y="78" fill="#81a1c1" font-size="11" font-family="'Segoe UI', sans-serif" text-anchor="middle" font-weight="500">Streak</text>
        <text x="713" y="104" fill="#88c0d0" font-size="20" font-family="'Segoe UI Mono', 'Cascadia Code', monospace" text-anchor="middle" font-weight="700">8</text>
        <text x="713" y="120" fill="#81a1c1" font-size="11" font-family="'Segoe UI', sans-serif" text-anchor="middle">days</text>
  </g>

  <!-- Chart -->
  <g class="cpd-chart">
    <line x1="72" y1="148" x2="808" y2="148" stroke="#434c5e" stroke-width="1" stroke-dasharray="4,4"/><line x1="72" y1="213.5" x2="808" y2="213.5" stroke="#434c5e" stroke-width="1" stroke-dasharray="4,4"/><line x1="72" y1="279" x2="808" y2="279" stroke="#434c5e" stroke-width="1" stroke-dasharray="4,4"/><line x1="72" y1="344.5" x2="808" y2="344.5" stroke="#434c5e" stroke-width="1" stroke-dasharray="4,4"/><line x1="72" y1="410" x2="808" y2="410" stroke="#434c5e" stroke-width="1" stroke-dasharray="4,4"/><line x1="72" y1="279" x2="808" y2="279" stroke="#4c566a" stroke-width="1.5"/><text x="64" y="162" fill="#81a1c1" font-size="10" font-family="'Segoe UI', sans-serif" text-anchor="end">+1,853</text><text x="64" y="406" fill="#81a1c1" font-size="10" font-family="'Segoe UI', sans-serif" text-anchor="end">-1,853</text><text x="64" y="283" fill="#81a1c1" font-size="10" font-family="'Segoe UI', sans-serif" text-anchor="end">0</text><path d="M 72 279 L 72 279 L 96.53333333333333 265.4177010253643 L 121.06666666666666 279 L 145.60000000000002 267.8337830545062 L 170.13333333333333 270.3804641122504 L 194.66666666666669 189.2131678359417 L 219.20000000000002 232.96384241770102 L 243.73333333333335 277.56341068537506 L 268.26666666666665 278.54290339989205 L 292.8 269.40097139773343 L 317.33333333333337 271.4252563410685 L 341.8666666666667 279 L 366.40000000000003 239.10199676200756 L 390.93333333333334 271.62115488397194 L 415.4666666666667 158 L 440 265.15650296815977 L 464.53333333333336 279 L 489.0666666666667 274.6249325418241 L 513.6 247.06853750674583 L 538.1333333333334 242.17107393416083 L 562.6666666666667 158 L 587.2 279 L 611.7333333333333 279 L 636.2666666666667 199.66109012412304 L 660.8000000000001 158 L 685.3333333333334 271.0987587695629 L 709.8666666666667 242.56287101996762 L 734.4000000000001 224.93200215866165 L 758.9333333333334 261.3038316243929 L 783.4666666666667 275.8003237992445 L 808 158 L 808 279 Z" fill="#a3be8c" opacity="0.15"/><path d="M 72 279 L 72 279 L 96.53333333333333 265.4177010253643 L 121.06666666666666 279 L 145.60000000000002 267.8337830545062 L 170.13333333333333 270.3804641122504 L 194.66666666666669 189.2131678359417 L 219.20000000000002 232.96384241770102 L 243.73333333333335 277.56341068537506 L 268.26666666666665 278.54290339989205 L 292.8 269.40097139773343 L 317.33333333333337 271.4252563410685 L 341.8666666666667 279 L 366.40000000000003 239.10199676200756 L 390.93333333333334 271.62115488397194 L 415.4666666666667 158 L 440 265.15650296815977 L 464.53333333333336 279 L 489.0666666666667 274.6249325418241 L 513.6 247.06853750674583 L 538.1333333333334 242.17107393416083 L 562.6666666666667 158 L 587.2 279 L 611.7333333333333 279 L 636.2666666666667 199.66109012412304 L 660.8000000000001 158 L 685.3333333333334 271.0987587695629 L 709.8666666666667 242.56287101996762 L 734.4000000000001 224.93200215866165 L 758.9333333333334 261.3038316243929 L 783.4666666666667 275.8003237992445 L 808 158" fill="none" stroke="#a3be8c" stroke-width="2"/><path d="M 72 279 L 72 279 L 96.53333333333333 286.4441446303292 L 121.06666666666666 279 L 145.60000000000002 281.3507825148408 L 170.13333333333333 285.72584997301675 L 194.66666666666669 306.7522935779817 L 219.20000000000002 296.3043712898003 L 243.73333333333335 283.7015650296816 L 268.26666666666665 281.7425796006476 L 292.8 282.98327037236913 L 317.33333333333337 281.02428494333515 L 341.8666666666667 279 L 366.40000000000003 314.0658391797086 L 390.93333333333334 282.4608742579601 L 415.4666666666667 326.6033459255262 L 440 284.2892606583918 L 464.53333333333336 279 L 489.0666666666667 280.2406907717215 L 513.6 287.6195358877496 L 538.1333333333334 293.62709120345386 L 562.6666666666667 357.62061521856447 L 587.2 279 L 611.7333333333333 279 L 636.2666666666667 315.5024284943335 L 660.8000000000001 372.05180787911496 L 685.3333333333334 285.2687533729088 L 709.8666666666667 289.6438208310847 L 734.4000000000001 287.1624392876417 L 758.9333333333334 287.75013491635184 L 783.4666666666667 281.4813815434431 L 808 351.22126281705346 L 808 279 Z" fill="#bf616a" opacity="0.15"/><path d="M 72 279 L 72 279 L 96.53333333333333 286.4441446303292 L 121.06666666666666 279 L 145.60000000000002 281.3507825148408 L 170.13333333333333 285.72584997301675 L 194.66666666666669 306.7522935779817 L 219.20000000000002 296.3043712898003 L 243.73333333333335 283.7015650296816 L 268.26666666666665 281.7425796006476 L 292.8 282.98327037236913 L 317.33333333333337 281.02428494333515 L 341.8666666666667 279 L 366.40000000000003 314.0658391797086 L 390.93333333333334 282.4608742579601 L 415.4666666666667 326.6033459255262 L 440 284.2892606583918 L 464.53333333333336 279 L 489.0666666666667 280.2406907717215 L 513.6 287.6195358877496 L 538.1333333333334 293.62709120345386 L 562.6666666666667 357.62061521856447 L 587.2 279 L 611.7333333333333 279 L 636.2666666666667 315.5024284943335 L 660.8000000000001 372.05180787911496 L 685.3333333333334 285.2687533729088 L 709.8666666666667 289.6438208310847 L 734.4000000000001 287.1624392876417 L 758.9333333333334 287.75013491635184 L 783.4666666666667 281.4813815434431 L 808 351.22126281705346" fill="none" stroke="#bf616a" stroke-width="2"/><text x="72" y="426" fill="#81a1c1" font-size="10" font-family="'Segoe UI', sans-serif" text-anchor="middle">Mar 7</text><text x="194.66666666666669" y="426" fill="#81a1c1" font-size="10" font-family="'Segoe UI', sans-serif" text-anchor="middle">Mar 12</text><text x="317.33333333333337" y="426" fill="#81a1c1" font-size="10" font-family="'Segoe UI', sans-serif" text-anchor="middle">Mar 17</text><text x="440" y="426" fill="#81a1c1" font-size="10" font-family="'Segoe UI', sans-serif" text-anchor="middle">Mar 22</text><text x="562.6666666666667" y="426" fill="#81a1c1" font-size="10" font-family="'Segoe UI', sans-serif" text-anchor="middle">Mar 27</text><text x="685.3333333333334" y="426" fill="#81a1c1" font-size="10" font-family="'Segoe UI', sans-serif" text-anchor="middle">Apr 1</text><text x="808" y="426" fill="#81a1c1" font-size="10" font-family="'Segoe UI', sans-serif" text-anchor="middle">Apr 6</text>
  </g>

  <!-- Legend -->
  <g class="cpd-legend">
    <circle cx="30" cy="442" r="5" fill="#a3be8c"/>
    <text x="40" y="446" fill="#d8dee9" font-size="11" font-family="'Segoe UI', sans-serif">Additions</text>
    <circle cx="124" cy="442" r="5" fill="#bf616a"/>
    <text x="134" y="446" fill="#d8dee9" font-size="11" font-family="'Segoe UI', sans-serif">Deletions</text>
    <text x="816" y="446" fill="#81a1c1" font-size="10" font-family="'Segoe UI', sans-serif" text-anchor="end">Last 31 days · +17,848 / -7,774 lines</text>
  </g>

  <!-- Get your own -->
  <a href="https://github.com/mpge/code-per-day" target="_blank">
    <text x="420" y="452" fill="#81a1c1" font-size="10" font-family="'Segoe UI', sans-serif" text-anchor="middle" opacity="0.6">Get your own — github.com/mpge/code-per-day</text>
  </a>
</svg>