<svg width="840" height="460" viewBox="0 0 840 460" xmlns="http://www.w3.org/2000/svg">
  
    <style>
      @keyframes fadeInUp {
        from { opacity: 0; transform: translateY(12px); }
        to   { opacity: 1; transform: translateY(0); }
      }
      @keyframes growBar {
        from { transform: scaleY(0); }
        to   { transform: scaleY(1); }
      }
      .cpd-header  { animation: fadeInUp 0.5s ease both; }
      .cpd-stats   { animation: fadeInUp 0.5s ease 0.15s both; }
      .cpd-chart   { animation: fadeInUp 0.5s ease 0.3s both; }
      .cpd-legend  { animation: fadeInUp 0.5s ease 0.45s both; }
    </style>

  <!-- Background -->
  <rect width="840" height="460" rx="12" fill="#020024" stroke="#1a1a5e" stroke-width="1"/>

  <!-- Header -->
  <g class="cpd-header">
    <a href="https://github.com/mpge/code-per-day" target="_blank">
      <text x="24" y="44" fill="#e0e0ff" font-size="18" font-family="'Segoe UI', sans-serif" font-weight="700">Code Per Day</text>
    </a>
    <text x="816" y="44" fill="#6060a0" font-size="13" font-family="'Segoe UI', sans-serif" text-anchor="end" font-weight="500">@mpge</text>
  </g>

  <!-- Stats Cards -->
  <g class="cpd-stats">
    
    <rect x="24" y="60" width="190" height="68" rx="8" fill="#010018" stroke="#1a1a5e" stroke-width="1"/>
    <text x="119" y="78" fill="#6060a0" font-size="11" font-family="'Segoe UI', sans-serif" text-anchor="middle" font-weight="500">Today</text>
    <text x="119" y="100" fill="#00d4aa" font-size="16" font-family="'Segoe UI Mono', 'Cascadia Code', monospace" text-anchor="middle" font-weight="700">+1,999</text>
    <text x="119" y="118" fill="#ff4477" font-size="14" font-family="'Segoe UI Mono', 'Cascadia Code', monospace" text-anchor="middle" font-weight="600">-1,106</text>
    <rect x="222" y="60" width="190" height="68" rx="8" fill="#010018" stroke="#1a1a5e" stroke-width="1"/>
    <text x="317" y="78" fill="#6060a0" font-size="11" font-family="'Segoe UI', sans-serif" text-anchor="middle" font-weight="500">30d Avg</text>
    <text x="317" y="100" fill="#00d4aa" font-size="16" font-family="'Segoe UI Mono', 'Cascadia Code', monospace" text-anchor="middle" font-weight="700">+576</text>
    <text x="317" y="118" fill="#ff4477" font-size="14" font-family="'Segoe UI Mono', 'Cascadia Code', monospace" text-anchor="middle" font-weight="600">-251</text>
    <rect x="420" y="60" width="190" height="68" rx="8" fill="#010018" stroke="#1a1a5e" stroke-width="1"/>
    <text x="515" y="78" fill="#6060a0" font-size="11" font-family="'Segoe UI', sans-serif" text-anchor="middle" font-weight="500">Year Avg</text>
    <text x="515" y="100" fill="#00d4aa" font-size="16" font-family="'Segoe UI Mono', 'Cascadia Code', monospace" text-anchor="middle" font-weight="700">+571</text>
    <text x="515" y="118" fill="#ff4477" font-size="14" font-family="'Segoe UI Mono', 'Cascadia Code', monospace" text-anchor="middle" font-weight="600">-240</text>
        <rect x="618" y="60" width="190" height="68" rx="8" fill="#010018" stroke="#1a1a5e" stroke-width="1"/>
        <text x="713" y="78" fill="#6060a0" font-size="11" font-family="'Segoe UI', sans-serif" text-anchor="middle" font-weight="500">Streak</text>
        <text x="713" y="104" fill="#4488ff" font-size="20" font-family="'Segoe UI Mono', 'Cascadia Code', monospace" text-anchor="middle" font-weight="700">8</text>
        <text x="713" y="120" fill="#6060a0" font-size="11" font-family="'Segoe UI', sans-serif" text-anchor="middle">days</text>
  </g>

  <!-- Chart -->
  <g class="cpd-chart">
    <line x1="72" y1="148" x2="808" y2="148" stroke="#101050" stroke-width="1" stroke-dasharray="4,4"/><line x1="72" y1="213.5" x2="808" y2="213.5" stroke="#101050" stroke-width="1" stroke-dasharray="4,4"/><line x1="72" y1="279" x2="808" y2="279" stroke="#101050" stroke-width="1" stroke-dasharray="4,4"/><line x1="72" y1="344.5" x2="808" y2="344.5" stroke="#101050" stroke-width="1" stroke-dasharray="4,4"/><line x1="72" y1="410" x2="808" y2="410" stroke="#101050" stroke-width="1" stroke-dasharray="4,4"/><line x1="72" y1="279" x2="808" y2="279" stroke="#1a1a5e" stroke-width="1.5"/><text x="64" y="162" fill="#6060a0" font-size="10" font-family="'Segoe UI', sans-serif" text-anchor="end">+1,406</text><text x="64" y="406" fill="#6060a0" font-size="10" font-family="'Segoe UI', sans-serif" text-anchor="end">-1,406</text><text x="64" y="283" fill="#6060a0" font-size="10" font-family="'Segoe UI', sans-serif" text-anchor="end">0</text><path d="M 72 279 L 72 279 L 96.53333333333333 261.099573257468 L 121.06666666666666 279 L 145.60000000000002 264.2837837837838 L 170.13333333333333 267.64011379800854 L 194.66666666666669 160.6678520625889 L 219.20000000000002 218.32788051209104 L 243.73333333333335 277.1066856330014 L 268.26666666666665 278.39758179231865 L 292.8 266.3492176386913 L 317.33333333333337 269.0170697012802 L 341.8666666666667 279 L 366.40000000000003 226.41749644381224 L 390.93333333333334 269.27524893314364 L 415.4666666666667 158 L 440 260.75533428165005 L 464.53333333333336 279 L 489.0666666666667 273.2339971550498 L 513.6 236.9167852062589 L 538.1333333333334 230.46230440967284 L 562.6666666666667 158 L 587.2 279 L 611.7333333333333 279 L 636.2666666666667 174.43741109530583 L 660.8000000000001 158 L 685.3333333333334 268.5867709815078 L 709.8666666666667 230.9786628733997 L 734.4000000000001 207.7425320056899 L 758.9333333333334 255.6778093883357 L 783.4666666666667 274.7830725462304 L 808 158 L 808 279 Z" fill="#00d4aa" opacity="0.15"/><path d="M 72 279 L 72 279 L 96.53333333333333 261.099573257468 L 121.06666666666666 279 L 145.60000000000002 264.2837837837838 L 170.13333333333333 267.64011379800854 L 194.66666666666669 160.6678520625889 L 219.20000000000002 218.32788051209104 L 243.73333333333335 277.1066856330014 L 268.26666666666665 278.39758179231865 L 292.8 266.3492176386913 L 317.33333333333337 269.0170697012802 L 341.8666666666667 279 L 366.40000000000003 226.41749644381224 L 390.93333333333334 269.27524893314364 L 415.4666666666667 158 L 440 260.75533428165005 L 464.53333333333336 279 L 489.0666666666667 273.2339971550498 L 513.6 236.9167852062589 L 538.1333333333334 230.46230440967284 L 562.6666666666667 158 L 587.2 279 L 611.7333333333333 279 L 636.2666666666667 174.43741109530583 L 660.8000000000001 158 L 685.3333333333334 268.5867709815078 L 709.8666666666667 230.9786628733997 L 734.4000000000001 207.7425320056899 L 758.9333333333334 255.6778093883357 L 783.4666666666667 274.7830725462304 L 808 158" fill="none" stroke="#00d4aa" stroke-width="2"/><path d="M 72 279 L 72 279 L 96.53333333333333 288.81081081081084 L 121.06666666666666 279 L 145.60000000000002 282.0981507823613 L 170.13333333333333 287.8641536273115 L 194.66666666666669 315.5753911806543 L 219.20000000000002 301.8058321479374 L 243.73333333333335 285.1963015647226 L 268.26666666666665 282.6145092460882 L 292.8 284.24964438122333 L 317.33333333333337 281.6678520625889 L 341.8666666666667 279 L 366.40000000000003 325.2140825035562 L 390.93333333333334 283.5611664295875 L 415.4666666666667 341.7375533428165 L 440 285.97083926031297 L 464.53333333333336 279 L 489.0666666666667 280.63513513513516 L 513.6 290.35988620199146 L 538.1333333333334 298.2773826458037 L 562.6666666666667 382.6159317211949 L 587.2 279 L 611.7333333333333 279 L 636.2666666666667 327.1073968705548 L 660.8000000000001 400 L 685.3333333333334 287.26173541963016 L 709.8666666666667 293.02773826458036 L 734.4000000000001 289.7574679943101 L 758.9333333333334 290.5320056899004 L 783.4666666666667 282.27027027027026 L 808 374.1820768136557 L 808 279 Z" fill="#ff4477" opacity="0.15"/><path d="M 72 279 L 72 279 L 96.53333333333333 288.81081081081084 L 121.06666666666666 279 L 145.60000000000002 282.0981507823613 L 170.13333333333333 287.8641536273115 L 194.66666666666669 315.5753911806543 L 219.20000000000002 301.8058321479374 L 243.73333333333335 285.1963015647226 L 268.26666666666665 282.6145092460882 L 292.8 284.24964438122333 L 317.33333333333337 281.6678520625889 L 341.8666666666667 279 L 366.40000000000003 325.2140825035562 L 390.93333333333334 283.5611664295875 L 415.4666666666667 341.7375533428165 L 440 285.97083926031297 L 464.53333333333336 279 L 489.0666666666667 280.63513513513516 L 513.6 290.35988620199146 L 538.1333333333334 298.2773826458037 L 562.6666666666667 382.6159317211949 L 587.2 279 L 611.7333333333333 279 L 636.2666666666667 327.1073968705548 L 660.8000000000001 400 L 685.3333333333334 287.26173541963016 L 709.8666666666667 293.02773826458036 L 734.4000000000001 289.7574679943101 L 758.9333333333334 290.5320056899004 L 783.4666666666667 282.27027027027026 L 808 374.1820768136557" fill="none" stroke="#ff4477" stroke-width="2"/><text x="72" y="426" fill="#6060a0" font-size="10" font-family="'Segoe UI', sans-serif" text-anchor="middle">Mar 7</text><text x="194.66666666666669" y="426" fill="#6060a0" font-size="10" font-family="'Segoe UI', sans-serif" text-anchor="middle">Mar 12</text><text x="317.33333333333337" y="426" fill="#6060a0" font-size="10" font-family="'Segoe UI', sans-serif" text-anchor="middle">Mar 17</text><text x="440" y="426" fill="#6060a0" font-size="10" font-family="'Segoe UI', sans-serif" text-anchor="middle">Mar 22</text><text x="562.6666666666667" y="426" fill="#6060a0" font-size="10" font-family="'Segoe UI', sans-serif" text-anchor="middle">Mar 27</text><text x="685.3333333333334" y="426" fill="#6060a0" font-size="10" font-family="'Segoe UI', sans-serif" text-anchor="middle">Apr 1</text><text x="808" y="426" fill="#6060a0" font-size="10" font-family="'Segoe UI', sans-serif" text-anchor="middle">Apr 6</text>
  </g>

  <!-- Legend -->
  <g class="cpd-legend">
    <circle cx="30" cy="442" r="5" fill="#00d4aa"/>
    <text x="40" y="446" fill="#a0a0d0" font-size="11" font-family="'Segoe UI', sans-serif">Additions</text>
    <circle cx="124" cy="442" r="5" fill="#ff4477"/>
    <text x="134" y="446" fill="#a0a0d0" font-size="11" font-family="'Segoe UI', sans-serif">Deletions</text>
    <text x="816" y="446" fill="#6060a0" font-size="10" font-family="'Segoe UI', sans-serif" text-anchor="end">Last 31 days · +17,848 / -7,774 lines</text>
  </g>

  <!-- Get your own -->
  <a href="https://github.com/mpge/code-per-day" target="_blank">
    <text x="420" y="452" fill="#6060a0" font-size="10" font-family="'Segoe UI', sans-serif" text-anchor="middle" opacity="0.6">Get your own — github.com/mpge/code-per-day</text>
  </a>
</svg>